#N canvas 373 59 850 764 12;
#X obj 88 140 vsl 50 160 0 127 0 0 impsyin1 empty empty 0 -9 0 12 #ffc7c6 #000000 #000000 0 1;
#X obj 147 140 vsl 50 160 0 127 0 0 impsyin2 empty empty 0 -9 0 12 #ffe3c6 #000000 #000000 0 1;
#X obj 209 140 vsl 50 160 0 127 0 0 impsyin3 empty empty 0 -9 0 12 #feffc6 #000000 #000000 0 1;
#X obj 87 411 vsl 50 160 0 127 0 0 synth1 impsyout1 empty 0 -9 0 12 #c6ffc7 #000000 #000000 0 1;
#X obj 146 411 vsl 50 160 0 127 0 0 synth2 impsyout2 empty 0 -9 0 12 #c6feff #000000 #000000 0 1;
#X obj 208 411 vsl 50 160 0 127 0 0 synth3 impsyout3 empty 0 -9 0 12 #c7c6ff #000000 #000000 0 1;
#X text 71 307 inputs to IMPSY (touch these!);
#N canvas -2065 277 763 434 synth 0;
#X obj 250 339 dac~;
#N canvas -1250 15 702 495 one_touch_sine 0;
#X obj 87 13 inlet;
#X obj 67 265 outlet~;
#X obj 98 197 osc~;
#X obj 164 96 mtof;
#X obj 80 232 *~;
#X obj 46 198 vline~;
#X obj 88 45 t b f;
#X obj 167 159 line~;
#X msg 28 140 1 10 \, 0 200 10;
#X msg 168 131 \$1 10;
#X connect 0 0 6 0;
#X connect 2 0 4 1;
#X connect 3 0 9 0;
#X connect 4 0 1 0;
#X connect 5 0 4 0;
#X connect 6 0 8 0;
#X connect 6 1 3 0;
#X connect 7 0 2 0;
#X connect 8 0 5 0;
#X connect 9 0 7 0;
#X restore 83 77 pd one_touch_sine;
#X obj 82 52 r synth1;
#N canvas -1250 15 702 495 one_touch_sine 0;
#X obj 87 13 inlet;
#X obj 67 265 outlet~;
#X obj 98 197 osc~;
#X obj 164 96 mtof;
#X obj 80 232 *~;
#X obj 46 198 vline~;
#X obj 88 45 t b f;
#X obj 167 159 line~;
#X msg 28 140 1 10 \, 0 200 10;
#X msg 168 131 \$1 10;
#X connect 0 0 6 0;
#X connect 2 0 4 1;
#X connect 3 0 9 0;
#X connect 4 0 1 0;
#X connect 5 0 4 0;
#X connect 6 0 8 0;
#X connect 6 1 3 0;
#X connect 7 0 2 0;
#X connect 8 0 5 0;
#X connect 9 0 7 0;
#X restore 227 76 pd one_touch_sine;
#N canvas -1250 15 702 495 one_touch_sine 0;
#X obj 87 13 inlet;
#X obj 67 265 outlet~;
#X obj 98 197 osc~;
#X obj 164 96 mtof;
#X obj 80 232 *~;
#X obj 46 198 vline~;
#X obj 88 45 t b f;
#X obj 167 159 line~;
#X msg 28 140 1 10 \, 0 200 10;
#X msg 168 131 \$1 10;
#X connect 0 0 6 0;
#X connect 2 0 4 1;
#X connect 3 0 9 0;
#X connect 4 0 1 0;
#X connect 5 0 4 0;
#X connect 6 0 8 0;
#X connect 6 1 3 0;
#X connect 7 0 2 0;
#X connect 8 0 5 0;
#X connect 9 0 7 0;
#X restore 368 76 pd one_touch_sine;
#X obj 226 51 r synth2;
#X obj 367 51 r synth3;
#X obj 266 253 *~ 0.6;
#X connect 1 0 7 0;
#X connect 2 0 1 0;
#X connect 3 0 7 0;
#X connect 4 0 7 0;
#X connect 5 0 3 0;
#X connect 6 0 4 0;
#X connect 7 0 0 0;
#X connect 7 0 0 1;
#X restore 344 539 pd synth;
#N canvas 99 256 681 449 receive-osc 0;
#X obj 58 96 oscparse;
#X obj 58 74 netreceive -u -b;
#X obj 54 115 list trim;
#X msg 58 50 listen 5002;
#X obj 41 153 route impsy;
#X obj 39 203 unpack f f f f f f f f f f;
#X obj 39 316 s impsyout1;
#X obj 88 344 s impsyout2;
#X obj 132 314 s impsyout3;
#X obj 49 22 loadbang;
#X obj 41 274 * 127;
#X obj 87 283 * 127;
#X obj 134 281 * 127;
#X obj 180 138 print;
#X obj 359 76 r reconnect;
#X obj 406 108 delay 500;
#X obj 140 396 outlet;
#X obj 310 395 outlet;
#X obj 302 343 t b;
#X obj 359 343 bng 19 250 50 0 empty empty empty 0 -10 0 12 #fcfcfc #000000 #000000;
#X msg 308 139 listen 0;
#X msg 308 169 0;
#X msg 393 175 1;
#X connect 0 0 2 0;
#X connect 1 0 0 0;
#X connect 2 0 4 0;
#X connect 2 0 13 0;
#X connect 2 0 18 0;
#X connect 3 0 1 0;
#X connect 4 0 5 0;
#X connect 5 0 10 0;
#X connect 5 1 11 0;
#X connect 5 2 12 0;
#X connect 9 0 3 0;
#X connect 10 0 6 0;
#X connect 11 0 7 0;
#X connect 12 0 8 0;
#X connect 14 0 20 0;
#X connect 14 0 15 0;
#X connect 15 0 3 0;
#X connect 15 0 22 0;
#X connect 18 0 17 0;
#X connect 18 0 19 0;
#X connect 20 0 1 0;
#X connect 20 0 21 0;
#X connect 21 0 16 0;
#X connect 22 0 16 0;
#X restore 344 469 pd receive-osc;
#N canvas 821 48 733 751 send-osc 0;
#X msg 298 524 connect localhost 5000;
#X obj 95 554 netsend -u -b;
#X obj 95 479 list prepend send;
#X obj 95 504 list trim;
#X obj 95 452 oscformat interface;
#X obj 299 499 loadbang;
#X obj 63 29 r impsyin1;
#X obj 159 29 r impsyin2;
#X obj 270 30 r impsyin3;
#X obj 63 68 t b f;
#X obj 63 96 s send;
#X obj 63 125 / 127;
#X obj 66 178 f;
#X obj 95 417 list trim;
#X obj 159 64 t b f;
#X obj 159 92 s send;
#X obj 159 121 / 127;
#X obj 162 174 f;
#X obj 271 66 t b f;
#X obj 271 94 s send;
#X obj 271 123 / 127;
#X obj 274 176 f;
#X obj 559 82 r send;
#X obj 96 615 outlet;
#X obj 158 617 outlet;
#X obj 158 589 t b;
#X obj 350 387 r reconnect;
#X msg 299 450 disconnect;
#X obj 397 419 delay 500;
#X obj 380 66 t b f;
#X obj 380 94 s send;
#X obj 380 123 / 127;
#X obj 383 176 f;
#X obj 379 30 r impsyin4;
#X obj 559 106 t b b b b;
#X obj 95 388 pack f f f f;
#X connect 0 0 1 0;
#X connect 1 0 23 0;
#X connect 2 0 3 0;
#X connect 3 0 1 0;
#X connect 3 0 25 0;
#X connect 4 0 2 0;
#X connect 5 0 0 0;
#X connect 6 0 9 0;
#X connect 7 0 14 0;
#X connect 8 0 18 0;
#X connect 9 0 10 0;
#X connect 9 1 11 0;
#X connect 11 0 12 1;
#X connect 12 0 35 0;
#X connect 13 0 4 0;
#X connect 14 0 15 0;
#X connect 14 1 16 0;
#X connect 16 0 17 1;
#X connect 17 0 35 1;
#X connect 18 0 19 0;
#X connect 18 1 20 0;
#X connect 20 0 21 1;
#X connect 21 0 35 2;
#X connect 22 0 34 0;
#X connect 25 0 24 0;
#X connect 26 0 27 0;
#X connect 26 0 28 0;
#X connect 27 0 1 0;
#X connect 28 0 0 0;
#X connect 29 0 30 0;
#X connect 29 1 31 0;
#X connect 31 0 32 1;
#X connect 32 0 35 3;
#X connect 33 0 29 0;
#X connect 34 0 12 0;
#X connect 34 1 17 0;
#X connect 34 2 21 0;
#X connect 34 3 32 0;
#X connect 35 0 13 0;
#X restore 342 396 pd send-osc;
#X obj 342 425 tgl 19 0 empty empty empty 0 -10 0 12 #fcfcfc #000000 #000000 0 1;
#X obj 400 425 bng 19 250 50 0 empty empty empty 0 -10 0 12 #fcfcfc #000000 #000000;
#X obj 360 199 bng 50 250 50 0 reconnect empty Reconnect\ OSC 0 -10 0 12 #ff0400 #000000 #000000;
#X obj 343 496 tgl 19 0 empty empty empty 0 -10 0 12 #fcfcfc #000000 #000000 0 1;
#X obj 419 495 bng 19 250 50 0 empty empty empty 0 -10 0 12 #fcfcfc #000000 #000000;
#X text 41 583 outputs from IMPSY (controlled by IMPSY!);
#X obj 83 48 metro 125;
#X obj 82 15 tgl 19 0 empty empty empty 0 -10 0 12 #fcfcfc #000000 #000000 0 1;
#X obj 83 76 f;
#X obj 116 76 + 1;
#X obj 191 25 sin;
#X obj 191 50 + 1, f 6;
#X obj 190 79 * 60, f 7;
#X obj 273 140 vsl 50 160 0 127 0 0 impsyin4 empty empty 0 -9 0 12 #bbbbbb #000000 #000000 0 1;
#X connect 8 0 13 0;
#X connect 8 1 14 0;
#X connect 9 0 10 0;
#X connect 9 1 11 0;
#X connect 16 0 18 0;
#X connect 17 0 16 0;
#X connect 18 0 19 0;
#X connect 18 0 20 0;
#X connect 19 0 18 1;
#X connect 20 0 21 0;
#X connect 21 0 22 0;
#X connect 22 0 2 0;
